<svg width="200" height="60" viewBox="0 0 200 60" fill="none" xmlns="http://www.w3.org/2000/svg">
  <!-- Icon -->
  <rect x="4" y="4" width="52" height="52" rx="12" fill="#356bff"/>
  <path d="M16 24C16 22.8954 16.8954 22 18 22H26C27.1046 22 28 22.8954 28 24V40C28 41.1046 27.1046 42 26 42H18C16.8954 42 16 41.1046 16 40V24Z" fill="white"/>
  <path d="M32 16C32 14.8954 32.8954 14 34 14H42C43.1046 14 44 14.8954 44 16V32C44 33.1046 43.1046 34 42 34H34C32.8954 34 32 33.1046 32 32V16Z" fill="white"/>
  <circle cx="20" cy="50" r="3" fill="white"/>
  <circle cx="40" cy="50" r="3" fill="white"/>
  
  <!-- Text -->
  <text x="70" y="25" font-family="Inter, sans-serif" font-size="18" font-weight="700" fill="#0f172a">Lockard LLC</text>
  <text x="70" y="43" font-family="Inter, sans-serif" font-size="12" font-weight="400" fill="#0f172a" fill-opacity="0.65">Emotionally Intelligent Developer Tools</text>
</svg>
